<svg id="visual" viewBox="0 0 300 50" width="300" height="50" xmlns="http://www.w3.org/2000/svg" xmlns:xlink="http://www.w3.org/1999/xlink" version="1.1"><rect x="0" y="0" width="300" height="50" fill="#dd3f31"></rect><path d="M0 27L2.2 27.2C4.3 27.3 8.7 27.7 12.8 29.8C17 32 21 36 25.2 37.2C29.3 38.3 33.7 36.7 37.8 35C42 33.3 46 31.7 50.2 32.5C54.3 33.3 58.7 36.7 62.8 36.5C67 36.3 71 32.7 75.2 30.8C79.3 29 83.7 29 87.8 30.5C92 32 96 35 100.2 37C104.3 39 108.7 40 112.8 39C117 38 121 35 125.2 33.3C129.3 31.7 133.7 31.3 137.8 31.5C142 31.7 146 32.3 150.2 33.2C154.3 34 158.7 35 162.8 36.3C167 37.7 171 39.3 175.2 38.5C179.3 37.7 183.7 34.3 187.8 34C192 33.7 196 36.3 200.2 36.5C204.3 36.7 208.7 34.3 212.8 34.3C217 34.3 221 36.7 225.2 36.5C229.3 36.3 233.7 33.7 237.8 33.5C242 33.3 246 35.7 250.2 35C254.3 34.3 258.7 30.7 262.8 30C267 29.3 271 31.7 275.2 31.8C279.3 32 283.7 30 287.8 30.7C292 31.3 296 34.7 298 36.3L300 38L300 51L298 51C296 51 292 51 287.8 51C283.7 51 279.3 51 275.2 51C271 51 267 51 262.8 51C258.7 51 254.3 51 250.2 51C246 51 242 51 237.8 51C233.7 51 229.3 51 225.2 51C221 51 217 51 212.8 51C208.7 51 204.3 51 200.2 51C196 51 192 51 187.8 51C183.7 51 179.3 51 175.2 51C171 51 167 51 162.8 51C158.7 51 154.3 51 150.2 51C146 51 142 51 137.8 51C133.7 51 129.3 51 125.2 51C121 51 117 51 112.8 51C108.7 51 104.3 51 100.2 51C96 51 92 51 87.8 51C83.7 51 79.3 51 75.2 51C71 51 67 51 62.8 51C58.7 51 54.3 51 50.2 51C46 51 42 51 37.8 51C33.7 51 29.3 51 25.2 51C21 51 17 51 12.8 51C8.7 51 4.3 51 2.2 51L0 51Z" fill="#ff0066" stroke-linecap="round" stroke-linejoin="miter"></path></svg>