<svg id="visual" viewBox="0 0 300 50" width="300" height="50" xmlns="http://www.w3.org/2000/svg" xmlns:xlink="http://www.w3.org/1999/xlink" version="1.1"><rect x="0" y="0" width="300" height="50" fill="#ff0066"></rect><path d="M0 22L2.2 23.8C4.3 25.7 8.7 29.3 12.8 30.3C17 31.3 21 29.7 25.2 28.2C29.3 26.7 33.7 25.3 37.8 26.3C42 27.3 46 30.7 50.2 32.8C54.3 35 58.7 36 62.8 33.8C67 31.7 71 26.3 75.2 26.2C79.3 26 83.7 31 87.8 32.8C92 34.7 96 33.3 100.2 31.5C104.3 29.7 108.7 27.3 112.8 27.8C117 28.3 121 31.7 125.2 31.3C129.3 31 133.7 27 137.8 27C142 27 146 31 150.2 32.7C154.3 34.3 158.7 33.7 162.8 32.7C167 31.7 171 30.3 175.2 29.7C179.3 29 183.7 29 187.8 29.5C192 30 196 31 200.2 32C204.3 33 208.7 34 212.8 33.8C217 33.7 221 32.3 225.2 30.5C229.3 28.7 233.7 26.3 237.8 26.7C242 27 246 30 250.2 31.5C254.3 33 258.7 33 262.8 31.2C267 29.3 271 25.7 275.2 24.8C279.3 24 283.7 26 287.8 26.7C292 27.3 296 26.7 298 26.3L300 26L300 51L298 51C296 51 292 51 287.8 51C283.7 51 279.3 51 275.2 51C271 51 267 51 262.8 51C258.7 51 254.3 51 250.2 51C246 51 242 51 237.8 51C233.7 51 229.3 51 225.2 51C221 51 217 51 212.8 51C208.7 51 204.3 51 200.2 51C196 51 192 51 187.8 51C183.7 51 179.3 51 175.2 51C171 51 167 51 162.8 51C158.7 51 154.3 51 150.2 51C146 51 142 51 137.8 51C133.7 51 129.3 51 125.2 51C121 51 117 51 112.8 51C108.7 51 104.3 51 100.2 51C96 51 92 51 87.8 51C83.7 51 79.3 51 75.2 51C71 51 67 51 62.8 51C58.7 51 54.3 51 50.2 51C46 51 42 51 37.8 51C33.7 51 29.3 51 25.2 51C21 51 17 51 12.8 51C8.7 51 4.3 51 2.2 51L0 51Z" fill="#4b4b4b" stroke-linecap="round" stroke-linejoin="miter"></path></svg>