<svg id="visual" viewBox="0 0 300 50" width="300" height="50" xmlns="http://www.w3.org/2000/svg" xmlns:xlink="http://www.w3.org/1999/xlink" version="1.1"><rect x="0" y="0" width="300" height="50" fill="#3c31dd"></rect><path d="M0 41L2.2 38.7C4.3 36.3 8.7 31.7 12.8 30.2C17 28.7 21 30.3 25.2 30.3C29.3 30.3 33.7 28.7 37.8 29.8C42 31 46 35 50.2 36.2C54.3 37.3 58.7 35.7 62.8 33.8C67 32 71 30 75.2 31.2C79.3 32.3 83.7 36.7 87.8 37.5C92 38.3 96 35.7 100.2 33.7C104.3 31.7 108.7 30.3 112.8 30.3C117 30.3 121 31.7 125.2 32.5C129.3 33.3 133.7 33.7 137.8 33.8C142 34 146 34 150.2 33.5C154.3 33 158.7 32 162.8 30.8C167 29.7 171 28.3 175.2 28.2C179.3 28 183.7 29 187.8 29C192 29 196 28 200.2 27.5C204.3 27 208.7 27 212.8 28.2C217 29.3 221 31.7 225.2 32.3C229.3 33 233.7 32 237.8 31.3C242 30.7 246 30.3 250.2 31.8C254.3 33.3 258.7 36.7 262.8 37.8C267 39 271 38 275.2 36.8C279.3 35.7 283.7 34.3 287.8 34.2C292 34 296 35 298 35.5L300 36L300 51L298 51C296 51 292 51 287.8 51C283.7 51 279.3 51 275.2 51C271 51 267 51 262.8 51C258.7 51 254.3 51 250.2 51C246 51 242 51 237.8 51C233.7 51 229.3 51 225.2 51C221 51 217 51 212.8 51C208.7 51 204.3 51 200.2 51C196 51 192 51 187.8 51C183.7 51 179.3 51 175.2 51C171 51 167 51 162.8 51C158.7 51 154.3 51 150.2 51C146 51 142 51 137.8 51C133.7 51 129.3 51 125.2 51C121 51 117 51 112.8 51C108.7 51 104.3 51 100.2 51C96 51 92 51 87.8 51C83.7 51 79.3 51 75.2 51C71 51 67 51 62.8 51C58.7 51 54.3 51 50.2 51C46 51 42 51 37.8 51C33.7 51 29.3 51 25.2 51C21 51 17 51 12.8 51C8.7 51 4.3 51 2.2 51L0 51Z" fill="#dd3f31" stroke-linecap="round" stroke-linejoin="miter"></path></svg>