<svg id="visual" viewBox="0 0 300 50" width="300" height="50" xmlns="http://www.w3.org/2000/svg" xmlns:xlink="http://www.w3.org/1999/xlink" version="1.1"><rect x="0" y="0" width="300" height="50" fill="#dd3f31"></rect><path d="M0 34L7.2 33.2C14.3 32.3 28.7 30.7 43 30.2C57.3 29.7 71.7 30.3 86 30.5C100.3 30.7 114.7 30.3 128.8 31.2C143 32 157 34 171.2 34.7C185.3 35.3 199.7 34.7 214 34.3C228.3 34 242.7 34 257 34.2C271.3 34.3 285.7 34.7 292.8 34.8L300 35L300 51L292.8 51C285.7 51 271.3 51 257 51C242.7 51 228.3 51 214 51C199.7 51 185.3 51 171.2 51C157 51 143 51 128.8 51C114.7 51 100.3 51 86 51C71.7 51 57.3 51 43 51C28.7 51 14.3 51 7.2 51L0 51Z" fill="#fa7268"></path><path d="M0 39L7.2 38C14.3 37 28.7 35 43 35C57.3 35 71.7 37 86 37.5C100.3 38 114.7 37 128.8 36.3C143 35.7 157 35.3 171.2 34.7C185.3 34 199.7 33 214 32.7C228.3 32.3 242.7 32.7 257 32.8C271.3 33 285.7 33 292.8 33L300 33L300 51L292.8 51C285.7 51 271.3 51 257 51C242.7 51 228.3 51 214 51C199.7 51 185.3 51 171.2 51C157 51 143 51 128.8 51C114.7 51 100.3 51 86 51C71.7 51 57.3 51 43 51C28.7 51 14.3 51 7.2 51L0 51Z" fill="#fc6165"></path><path d="M0 38L7.2 37.8C14.3 37.7 28.7 37.3 43 38C57.3 38.7 71.7 40.3 86 40.5C100.3 40.7 114.7 39.3 128.8 39.2C143 39 157 40 171.2 39.7C185.3 39.3 199.7 37.7 214 36.8C228.3 36 242.7 36 257 36.3C271.3 36.7 285.7 37.3 292.8 37.7L300 38L300 51L292.8 51C285.7 51 271.3 51 257 51C242.7 51 228.3 51 214 51C199.7 51 185.3 51 171.2 51C157 51 143 51 128.8 51C114.7 51 100.3 51 86 51C71.7 51 57.3 51 43 51C28.7 51 14.3 51 7.2 51L0 51Z" fill="#fe4e63"></path><path d="M0 41L7.2 41C14.3 41 28.7 41 43 41.3C57.3 41.7 71.7 42.3 86 42.3C100.3 42.3 114.7 41.7 128.8 41.8C143 42 157 43 171.2 43.2C185.3 43.3 199.7 42.7 214 42.5C228.3 42.3 242.7 42.7 257 42.8C271.3 43 285.7 43 292.8 43L300 43L300 51L292.8 51C285.7 51 271.3 51 257 51C242.7 51 228.3 51 214 51C199.7 51 185.3 51 171.2 51C157 51 143 51 128.8 51C114.7 51 100.3 51 86 51C71.7 51 57.3 51 43 51C28.7 51 14.3 51 7.2 51L0 51Z" fill="#ff3564"></path><path d="M0 43L7.2 43.3C14.3 43.7 28.7 44.3 43 44.8C57.3 45.3 71.7 45.7 86 45.8C100.3 46 114.7 46 128.8 45.5C143 45 157 44 171.2 43.8C185.3 43.7 199.7 44.3 214 44.5C228.3 44.7 242.7 44.3 257 44.3C271.3 44.3 285.7 44.7 292.8 44.8L300 45L300 51L292.8 51C285.7 51 271.3 51 257 51C242.7 51 228.3 51 214 51C199.7 51 185.3 51 171.2 51C157 51 143 51 128.8 51C114.7 51 100.3 51 86 51C71.7 51 57.3 51 43 51C28.7 51 14.3 51 7.2 51L0 51Z" fill="#ff0066"></path></svg>