<svg id="visual" viewBox="0 0 300 50" width="300" height="50" xmlns="http://www.w3.org/2000/svg" xmlns:xlink="http://www.w3.org/1999/xlink" version="1.1"><rect x="0" y="0" width="300" height="50" fill="#dd3f31"></rect><path d="M0 17L7.2 17.3C14.3 17.7 28.7 18.3 43 18.7C57.3 19 71.7 19 86 18.5C100.3 18 114.7 17 128.8 16.2C143 15.3 157 14.7 171.2 14.7C185.3 14.7 199.7 15.3 214 16C228.3 16.7 242.7 17.3 257 17.8C271.3 18.3 285.7 18.7 292.8 18.8L300 19L300 0L292.8 0C285.7 0 271.3 0 257 0C242.7 0 228.3 0 214 0C199.7 0 185.3 0 171.2 0C157 0 143 0 128.8 0C114.7 0 100.3 0 86 0C71.7 0 57.3 0 43 0C28.7 0 14.3 0 7.2 0L0 0Z" fill="#de3131"></path><path d="M0 16L7.2 15C14.3 14 28.7 12 43 11.5C57.3 11 71.7 12 86 12.7C100.3 13.3 114.7 13.7 128.8 13.5C143 13.3 157 12.7 171.2 13C185.3 13.3 199.7 14.7 214 14.5C228.3 14.3 242.7 12.7 257 12C271.3 11.3 285.7 11.7 292.8 11.8L300 12L300 0L292.8 0C285.7 0 271.3 0 257 0C242.7 0 228.3 0 214 0C199.7 0 185.3 0 171.2 0C157 0 143 0 128.8 0C114.7 0 100.3 0 86 0C71.7 0 57.3 0 43 0C28.7 0 14.3 0 7.2 0L0 0Z" fill="#e1015a"></path><path d="M0 6L7.2 6.7C14.3 7.3 28.7 8.7 43 9.3C57.3 10 71.7 10 86 9.8C100.3 9.7 114.7 9.3 128.8 9C143 8.7 157 8.3 171.2 7.8C185.3 7.3 199.7 6.7 214 7C228.3 7.3 242.7 8.7 257 9.7C271.3 10.7 285.7 11.3 292.8 11.7L300 12L300 0L292.8 0C285.7 0 271.3 0 257 0C242.7 0 228.3 0 214 0C199.7 0 185.3 0 171.2 0C157 0 143 0 128.8 0C114.7 0 100.3 0 86 0C71.7 0 57.3 0 43 0C28.7 0 14.3 0 7.2 0L0 0Z" fill="#d30083"></path><path d="M0 7L7.2 6.7C14.3 6.3 28.7 5.7 43 5.7C57.3 5.7 71.7 6.3 86 6.7C100.3 7 114.7 7 128.8 6.5C143 6 157 5 171.2 4.7C185.3 4.3 199.7 4.7 214 5.2C228.3 5.7 242.7 6.3 257 6.8C271.3 7.3 285.7 7.7 292.8 7.8L300 8L300 0L292.8 0C285.7 0 271.3 0 257 0C242.7 0 228.3 0 214 0C199.7 0 185.3 0 171.2 0C157 0 143 0 128.8 0C114.7 0 100.3 0 86 0C71.7 0 57.3 0 43 0C28.7 0 14.3 0 7.2 0L0 0Z" fill="#ad00af"></path><path d="M0 3L7.2 3.2C14.3 3.3 28.7 3.7 43 3.7C57.3 3.7 71.7 3.3 86 3C100.3 2.7 114.7 2.3 128.8 2.5C143 2.7 157 3.3 171.2 3.7C185.3 4 199.7 4 214 3.7C228.3 3.3 242.7 2.7 257 2.8C271.3 3 285.7 4 292.8 4.5L300 5L300 0L292.8 0C285.7 0 271.3 0 257 0C242.7 0 228.3 0 214 0C199.7 0 185.3 0 171.2 0C157 0 143 0 128.8 0C114.7 0 100.3 0 86 0C71.7 0 57.3 0 43 0C28.7 0 14.3 0 7.2 0L0 0Z" fill="#3c31dd"></path></svg>